<svg viewBox="0 0 32 32" xmlns="http://www.w3.org/2000/svg">
  <defs>
    <radialGradient id="g" cx="38%" cy="32%" r="65%">
      <stop offset="0%"   stop-color="#FFF0E0"/>
      <stop offset="30%"  stop-color="#F59060"/>
      <stop offset="65%"  stop-color="#C03820"/>
      <stop offset="100%" stop-color="#680810"/>
    </radialGradient>
    <clipPath id="c">
      <circle cx="16" cy="16" r="13"/>
    </clipPath>
  </defs>
  <!-- Halo -->
  <circle cx="16" cy="16" r="15.5" fill="#FF6030" opacity="0.18"/>
  <!-- Globe -->
  <circle cx="16" cy="16" r="13" fill="url(#g)"/>
  <!-- Continents -->
  <g clip-path="url(#c)" fill="#4A0808" opacity="0.85">
    <path d="M7 8 C8.5 6.5,11 6,12.5 7 C14 8,13.8 10.5,12.8 12 C11.6 13.6,9.8 14,8.2 13.2 C6.4 12.2,5.8 9.5,7 8"/>
    <path d="M8.8 15.5 C10 14.5,11.8 15,12.2 16.2 C12.8 17.8,12.2 20,11.2 21.5 C10.2 23,8.5 23.4,7.6 22.5 C6.5 21.2,6.5 17.5,8.8 15.5"/>
    <path d="M15.5 6.8 C16.5 6.2,18 6.4,18.5 7.4 C19 8.5,18.2 10,17.2 10.5 C16.2 11,15 10.5,14.7 9.5 C14.3 8.5,14.8 7.2,15.5 6.8"/>
    <path d="M15.6 11.5 C17 11,19.2 11.5,20 13 C20.8 14.5,20.4 17,19.4 18.8 C18.3 20.6,16.4 21.2,15.2 20.5 C13.8 19.6,13.4 17.5,13.6 15.8 C13.7 14.2,14.4 12,15.6 11.5"/>
    <path d="M19.5 6.5 C21.5 5.8,24.5 6.2,25.5 7.8 C26.5 9.5,25.8 12,24.2 13 C22.4 14.2,20.2 13.8,19 12.5 C17.8 11.2,17.8 9,19.5 6.5"/>
    <path d="M21.2 17 C22.5 16.2,24.5 16.6,25.2 18 C26 19.5,25.4 21.8,24 22.6 C22.5 23.4,20.5 22.8,19.8 21.2 C19 19.5,19.8 17.8,21.2 17"/>
  </g>
  <!-- Orbital ring -->
  <ellipse cx="16" cy="16" rx="15" ry="5" stroke="#FFB850" stroke-width="1.2" fill="none" opacity="0.6" transform="rotate(-20,16,16)"/>
  <!-- Network dot -->
  <circle cx="12.5" cy="9.5"  r="1"   fill="#FFD060" opacity="0.9"/>
  <circle cx="17.2" cy="7.4"  r="0.8" fill="#FFD060" opacity="0.8"/>
  <circle cx="23"   cy="8"    r="0.8" fill="#FFD060" opacity="0.8"/>
</svg>
